<?xml version="1.0" encoding="UTF-8"?>
<svg width="949px" height="178px" viewBox="0 0 949 178" version="1.1" xmlns="http://www.w3.org/2000/svg" xmlns:xlink="http://www.w3.org/1999/xlink">
    <!-- Generator: Sketch 51.3 (57544) - http://www.bohemiancoding.com/sketch -->
    <title>Yellow</title>
    <desc>Created with Sketch.</desc>
    <defs></defs>
    <g id="Page-1" stroke="none" stroke-width="1" fill="none" fill-rule="evenodd">
        <g id="Прототип" transform="translate(-181.000000, -446.000000)" fill="#F8E71C">
            <path d="M181,455.331586 L243.680253,455.331586 L284.457369,520.186107 L325.001473,455.331586 L387.448714,455.331586 L312.651832,564.277851 L312.651832,618.634338 L255.796882,618.634338 L255.796882,564.277851 L181,455.331586 Z M418.614081,564.97772 C422.808299,581.074705 436.556013,587.140236 459.158186,587.140236 C478.498189,587.140236 489.449758,582.707733 501.799398,573.842726 L528.362777,601.370904 C509.72181,617.934469 485.25554,624 456.129028,624 C399.50709,624 366.652385,597.63827 366.652385,553.546527 C366.652385,509.921363 399.274078,483.093054 451.934811,483.093054 C498.537229,483.093054 533.489043,506.188729 533.489043,552.146789 C533.489043,557.97903 532.790007,561.711664 531.857958,564.97772 L418.614081,564.97772 Z M452.400835,519.486239 C436.089988,519.486239 424.439384,525.551769 419.779142,538.61599 L483.857467,538.3827 C479.430238,526.018349 469.177706,519.486239 452.400835,519.486239 Z M607.761648,618.634338 L553.003806,618.634338 L553.003806,446 L607.761648,446 L607.761648,618.634338 Z M689.956663,618.634338 L635.198821,618.634338 L635.198821,446 L689.956663,446 L689.956663,618.634338 Z M796.850961,624 C743.957216,624 710.170462,597.40498 710.170462,553.546527 C710.170462,509.921363 743.957216,483.326343 796.850961,483.326343 C849.744706,483.326343 883.531459,509.921363 883.531459,553.546527 C883.531459,597.40498 849.744706,624 796.850961,624 Z M796.850961,583.174312 C817.123013,583.174312 831.569762,572.676278 831.569762,553.546527 C831.569762,534.416776 817.123013,524.152031 796.850961,524.152031 C776.811921,524.152031 762.132159,534.416776 762.132159,553.546527 C762.132159,572.676278 776.811921,583.174312 796.850961,583.174312 Z M1078.73734,488.692005 L1130,488.692005 L1085.02867,618.634338 L1033.29998,618.634338 L1007.20263,539.782438 L981.105273,618.634338 L929.6096,618.634338 L884.638266,488.692005 L936.832975,488.692005 L959.66816,563.811271 L984.13443,488.692005 L1031.20287,488.692005 L1055.66914,563.811271 L1078.73734,488.692005 Z" id="Yellow"></path>
        </g>
    </g>
</svg>