<svg width="113" height="22" viewBox="0 0 113 22" fill="none" xmlns="http://www.w3.org/2000/svg">
<path id="Yellow" fill-rule="evenodd" clip-rule="evenodd" d="M0.300781 1.10818H7.74442L12.5869 8.81003L17.4018 1.10818H24.8178L15.9352 14.0462V20.5013H9.18334V14.0462L0.300781 1.10818ZM28.5188 14.1293C29.0169 16.0409 30.6495 16.7612 33.3337 16.7612C35.6304 16.7612 36.931 16.2348 38.3976 15.1821L41.5521 18.4512C39.3384 20.4182 36.4329 21.1385 32.9739 21.1385C26.2498 21.1385 22.3481 18.0079 22.3481 12.7718C22.3481 7.59103 26.2221 4.40501 32.4759 4.40501C38.0102 4.40501 42.1609 7.14776 42.1609 12.6055C42.1609 13.2982 42.0779 13.7414 41.9672 14.1293H28.5188ZM32.5312 8.72691C30.5942 8.72691 29.2106 9.44723 28.6572 10.9987L36.2669 10.971C35.7411 9.50264 34.5235 8.72691 32.5312 8.72691ZM50.9812 20.5013H44.4784V0H50.9812V20.5013ZM60.7423 20.5013H54.2395V0H60.7423V20.5013ZM73.4366 21.1385C67.1552 21.1385 63.1428 17.9802 63.1428 12.7718C63.1428 7.59103 67.1552 4.43272 73.4366 4.43272C79.7181 4.43272 83.7304 7.59103 83.7304 12.7718C83.7304 17.9802 79.7181 21.1385 73.4366 21.1385ZM73.4366 16.2902C75.8441 16.2902 77.5597 15.0435 77.5597 12.7718C77.5597 10.5 75.8441 9.281 73.4366 9.281C71.0569 9.281 69.3136 10.5 69.3136 12.7718C69.3136 15.0435 71.0569 16.2902 73.4366 16.2902ZM106.912 5.06992H113L107.659 20.5013H101.516L98.4171 11.1372L95.3179 20.5013H89.2025L83.8619 5.06992H90.0603L92.7721 13.9908L95.6776 5.06992H101.267L104.173 13.9908L106.912 5.06992Z" fill="#F8E71C"/>
</svg>
